<mxfile host="app.diagrams.net" modified="2023-10-16T01:20:57.170Z" agent="Mozilla/5.0 (Windows NT 10.0; Win64; x64) AppleWebKit/537.36 (KHTML, like Gecko) Chrome/118.0.0.0 Safari/537.36" version="22.0.4" etag="7ybiPV8TyPR44aAhupad" type="github">
  <diagram name="페이지-1" id="ftFc4KOs6l--1xeboA0R">
    <mxGraphModel>
      <root>
        <mxCell id="0" />
        <mxCell id="1" parent="0" />
      </root>
    </mxGraphModel>
  </diagram>
</mxfile>
